<svg xmlns="http://www.w3.org/2000/svg" xmlns:xlink="http://www.w3.org/1999/xlink" width="617.843" height="312.365" viewBox="0 0 617.843 312.365">
  <defs>
    <filter id="nuvem" x="0" y="0" width="617.843" height="312.365" filterUnits="userSpaceOnUse">
      <feOffset dx="3" dy="3" input="SourceAlpha"/>
      <feGaussianBlur stdDeviation="3" result="blur"/>
      <feFlood flood-opacity="0.161"/>
      <feComposite operator="in" in2="blur"/>
      <feComposite in="SourceGraphic"/>
    </filter>
  </defs>
  <g transform="matrix(1, 0, 0, 1, 0, 0)" filter="url(#nuvem)">
    <path id="nuvem-2" data-name="nuvem" d="M346-964c-8.1,1-14.7,3.2-23,7.7-16.6,9-27.9,23.9-33.5,44.1a71.861,71.861,0,0,1-2.4,8c-.1-.4-1.3.4-2.7,1.7-1.5,1.4-3.4,2.5-4.3,2.5-1.4,0-1.4.2-.1,1,1,.7-.7,1-5.7,1-7.4,0-18.3,1.8-26.5,4.3-2.7.8-4.5,1.1-4.2.5.4-.6-.9-.9-3.2-.7-3.3.2-4.9-.5-10.4-4.5-13.2-9.8-26.4-12.7-40.5-9.1-13,3.4-25.4,13.3-32.5,25.8-1.7,3.1-3.6,5.5-4,5.2a1.1,1.1,0,0,0-1.5.5c-1.3,2-7.5,4.2-10.2,3.5a92.824,92.824,0,0,0-11.8-.6c-16.1,0-31.6,6.8-41.9,18.2C83.2-850,75-835.3,75-832.3c0,.8-.3,1.3-.7,1.1-.5-.2-2,.9-3.5,2.4s-2.1,2.8-1.5,2.9c.7,0-1.4.7-4.5,1.5-30.2,7.3-45.3,40.1-31.5,68.4,5.8,11.7,19.1,22.3,30.9,24.5,2.1.4,3.6,1.1,3.3,1.5-.5.7.9,1.6,2.8,1.8.5.1,2.8,2.7,5.3,5.9,18.7,24.3,63.1,39,111.9,37a196.761,196.761,0,0,0,40.5-5.6c9.2-2.2,10.9-2.1,23.5,1.9,16.6,5.1,30.6,7.1,50.5,7.2,24.4,0,42.9-3.2,62.5-10.9,5-1.9,9.5-3.5,10-3.5,7.1.5,10.1,1.4,14.7,4.5,12.4,8.2,29.2,15.2,45.2,18.9,11.7,2.7,37.8,3.6,50.9,1.8,29.6-4,56.4-17.3,75.7-37.6,4.1-4.3,7.7-7.9,8-7.9,2.2-.4,5-1.8,5-2.6,0-.5,1.5-.9,3.4-.9,4.7,0,15.1-3.4,21.1-6.9,11.8-6.8,21.4-18.6,26.3-32.3,3.7-10.5,4.3-27.3,1.2-38.4-3.7-13.8-10.9-24.5-22.2-33.5-2.6-2-4.5-3.9-4.2-4.2s-.3-1.8-1.4-3.4a19.328,19.328,0,0,1-2.6-7.8c-1.3-10.7-10-24.1-20.9-32.2-14.5-10.8-30.8-16.2-51-17-7-.3-12.5-.8-12.2-1.1s-.9-1.3-2.5-2.3c-1.7-1.1-3-2.4-3-2.9,0-.6-.4-.9-.9-.5-.5.3-1.5-2.1-2.1-5.2-3.9-19.1-20-35.2-41-40.8-14.1-3.8-31.9-2.6-44.4,2.9-4.6,2.1-6,2.2-11.1,1.4-4.5-.7-6.7-1.7-10-4.6C383.1-960.4,364.2-966.1,346-964Z" transform="translate(-22.15 970.43)" fill="#fff"/>
  </g>
</svg>
