<svg xmlns="http://www.w3.org/2000/svg" xmlns:xlink="http://www.w3.org/1999/xlink" width="841.156" height="777.203" viewBox="0 0 841.156 777.203"><defs><style>.a{fill:url(#a);}.b{filter:url(#b);}</style><linearGradient id="a" x1="0.5" x2="0.5" y2="1" gradientUnits="objectBoundingBox"><stop offset="0" stop-color="#6456ed"/><stop offset="1" stop-color="#483fb5"/></linearGradient><filter id="b" x="0" y="0" width="841.156" height="777.203" filterUnits="userSpaceOnUse"><feOffset dx="-8" dy="-8" input="SourceAlpha"/><feGaussianBlur stdDeviation="6" result="c"/><feFlood flood-opacity="0.059"/><feComposite operator="in" in2="c"/><feComposite in="SourceGraphic"/></filter></defs><g class="b" transform="matrix(1, 0, 0, 1, 0, 0)"><path class="a" d="M965.625-966.462c-27.535,2.888-51.286,17.541-58.012,35.926-2.943,7.96-8.092,10.5-22.385,11.06a128.869,128.869,0,0,0-16.289,1.62c-10.825,2.113-15.974,1.55-24.8-2.677-11.245-5.424-16.29-6.481-30.372-6.551-11.77,0-12.3.07-20.283,2.606-9.984,3.17-19.232,8.876-25.012,15.357-2.207,2.536-2.259,2-3.261,3.047-1.119.468-2.1,1.038-3.57,1.813a12.135,12.135,0,0,1-4.309,1.479c-.841,0-1.394.045-2.481,0-1.354.351-12.2-2.043-14.3-2.325-31.108-4.508-48.272,10.355-57.626,29.586a12.283,12.283,0,0,1-2.627,3.381l-3.363,1.691s-4.1,2.184-6.726,2.466c-13.977,1.761-29.426,11.06-34.576,20.851-4.519,8.665-25.986,146.87-25.986,146.87l377.41,212.3s189.6-286.4,208.2-300.275c3.048-2.325,6.621-4.3,7.777-4.3a3.635,3.635,0,0,0,2.522-.916c.21-.493,1.576-.845,3.048-.845a73.754,73.754,0,0,0,9.143-1.127c19.863-3.452,36.783-14.934,43.3-29.516,2.627-5.847,2.627-18.808,0-24.585-3.993-9.017-11.98-17.047-21.964-22.331-2.943-1.62-5.465-3.1-5.465-3.381a8.023,8.023,0,0,1-1.26-1.679,14.859,14.859,0,0,0-1.522-1.9c-.464-.505-.9-.44-1.212-2.764a28.233,28.233,0,0,0-3.888-9.017c-6.621-9.721-16.92-16.272-34.156-21.7-11.981-3.8-19.863-5.142-35.732-6.058-14.188-.845-17.551-1.479-20.493-4.015a11.806,11.806,0,0,1-1.777-1.7,9.587,9.587,0,0,1-2.427-3.936c-2.732-6.974-6.621-11.553-14.4-16.7-18.917-12.75-50.655-15.92-78.4-7.819a11.518,11.518,0,0,1-3.573.634,38.182,38.182,0,0,1-5.547.5c-4.1,0-4.332-1.419-7.695-3.392-12.611-7.326-27.43-11.341-43.3-11.764C973.087-966.673,967.412-966.6,965.625-966.462Z" transform="translate(-18.66 1494.61) rotate(-30)"/></g></svg>