<svg xmlns="http://www.w3.org/2000/svg" xmlns:xlink="http://www.w3.org/1999/xlink" width="635.09" height="686.343" viewBox="0 0 635.09 686.343">
  <defs>
    <style>
      .cls-1 {
        fill: url(#linear-gradient);
      }

      .cls-2 {
        filter: url(#Path_6);
      }
    </style>
    <linearGradient id="linear-gradient" x1="0.5" x2="0.5" y2="1" gradientUnits="objectBoundingBox">
      <stop offset="0" stop-color="#5143dc"/>
      <stop offset="1" stop-color="#29209b"/>
    </linearGradient>
    <filter id="Path_6" x="0" y="0" width="635.09" height="686.343" filterUnits="userSpaceOnUse">
      <feOffset dx="12" dy="-6" input="SourceAlpha"/>
      <feGaussianBlur stdDeviation="9.5" result="blur"/>
      <feFlood flood-opacity="0.161"/>
      <feComposite operator="in" in2="blur"/>
      <feComposite in="SourceGraphic"/>
    </filter>
  </defs>
  <g class="cls-2" transform="matrix(1, 0, 0, 1, 0, 0)">
    <path id="Path_6-2" data-name="Path 6" class="cls-1" d="M1082.327-966.423c-35.034,3.64-65.255,22.1-73.813,45.273-3.744,10.031-10.3,13.227-28.482,13.937a165.522,165.522,0,0,0-20.727,2.042c-13.773,2.663-20.325,1.953-31.557-3.373-14.308-6.835-20.726-8.167-38.645-8.256-14.977,0-15.645.089-25.808,3.284-12.7,3.995-24.471,11.185-31.825,19.352a42.178,42.178,0,0,1-5.215,5.06,9.446,9.446,0,0,0-3.477,1.065,35.739,35.739,0,0,1-4.069,1.81l-2.35,1.031s-.267.888-2.942.533c-39.581-5.681-78.894,8.611-90.795,32.845a15.509,15.509,0,0,1-3.343,4.261L715-845.429s-5.215,2.752-8.558,3.107C688.66-840.1,669-828.385,662.451-816.046c-5.75,10.919-4.948,22.9,2.541,33.378,8.023,11.185,17.838,435.595,17.838,435.595l63.5-1.108,376.24-6.567s-31.884.916,103.476-3.035c0,0-24.844-408.811-16.553-427.186,3.343-7.368,3.343-23.7,0-30.981-5.081-11.363-15.244-21.482-27.947-28.14-3.744-2.042-6.953-3.906-6.953-4.261-.134-.266-.668-1.509-1.2-2.663-.669-1.42-1.471-1.775-2.139-1.065-.535.621-1.337-1.331-1.738-4.261a35.4,35.4,0,0,0-4.948-11.363c-8.424-12.25-21.529-20.506-43.458-27.341-15.244-4.794,78.464-17.934,58.272-19.088-18.052-1.065-22.331-1.864-26.075-5.06-1.471-1.154-2.674-1.864-2.808-1.42,0,.444-1.2-2.13-2.541-5.681-3.477-8.788-8.424-14.558-18.319-21.039-24.069-16.068,80.532-11.721,45.231-1.512-2.942.888-4.948,1.154-4.546.8s-2.139-.71-5.482-.71c-5.215,0-7.087-.444-11.366-2.929-16.046-9.232-34.9-14.292-55.092-14.825C1091.822-966.69,1084.6-966.6,1082.327-966.423Z" transform="translate(-648.14 989.47) rotate(1)"/>
  </g>
</svg>
